<svg width="80" height="75" viewBox="0 0 80 75" fill="none" xmlns="http://www.w3.org/2000/svg">
<g filter="url(#filter0_d_1_22)">
<path d="M40 0C20.11 0 4 15.3805 4 34.3506C4 49.5306 14.314 62.4035 28.615 66.9406C30.415 67.2641 31.075 66.2021 31.075 65.289C31.075 64.4731 31.045 62.3119 31.03 59.4494C21.016 61.5218 18.904 54.8407 18.904 54.8407C17.266 50.876 14.899 49.8169 14.899 49.8169C11.638 47.6872 15.151 47.7301 15.151 47.7301C18.766 47.9706 20.665 51.2682 20.665 51.2682C23.875 56.521 29.092 55.0038 31.15 54.125C31.474 51.9037 32.401 50.3894 33.43 49.5306C25.435 48.6719 17.032 45.7177 17.032 32.5557C17.032 28.8058 18.427 25.7429 20.737 23.3383C20.332 22.471 19.117 18.9787 21.052 14.2469C21.052 14.2469 24.067 13.3252 30.952 17.7678C33.832 17.0035 36.892 16.6257 39.952 16.6085C43.012 16.6257 46.072 17.0035 48.952 17.7678C55.792 13.3252 58.807 14.2469 58.807 14.2469C60.742 18.9787 59.527 22.471 59.167 23.3383C61.462 25.7429 62.857 28.8058 62.857 32.5557C62.857 45.7521 54.442 48.6576 46.432 49.502C47.692 50.5325 48.862 52.6394 48.862 55.8569C48.862 60.4541 48.817 64.1468 48.817 65.2632C48.817 66.1649 49.447 67.2384 51.292 66.8948C65.695 62.3892 76 49.5077 76 34.3506C76 15.3805 59.881 0 40 0" fill="#2F3E46"/>
</g>
<defs>
<filter id="filter0_d_1_22" x="0" y="0" width="80" height="75" filterUnits="userSpaceOnUse" color-interpolation-filters="sRGB">
<feFlood flood-opacity="0" result="BackgroundImageFix"/>
<feColorMatrix in="SourceAlpha" type="matrix" values="0 0 0 0 0 0 0 0 0 0 0 0 0 0 0 0 0 0 127 0" result="hardAlpha"/>
<feOffset dy="4"/>
<feGaussianBlur stdDeviation="2"/>
<feComposite in2="hardAlpha" operator="out"/>
<feColorMatrix type="matrix" values="0 0 0 0 0 0 0 0 0 0 0 0 0 0 0 0 0 0 0.25 0"/>
<feBlend mode="normal" in2="BackgroundImageFix" result="effect1_dropShadow_1_22"/>
<feBlend mode="normal" in="SourceGraphic" in2="effect1_dropShadow_1_22" result="shape"/>
</filter>
</defs>
</svg>
